<svg viewBox="0 0 138 125" xmlns="http://www.w3.org/2000/svg" fill-rule="evenodd" clip-rule="evenodd" stroke-linecap="round" stroke-linejoin="round" stroke-miterlimit="1.5">
<path fill="none" d="M-366.667-200H462.5V929.17h-829.167z"/>
<path d="M133.333 12.554a8.39 8.39 0 00-8.387-8.387H12.554a8.39 8.39 0 00-8.387 8.387v99.892a8.39 8.39 0 008.387 8.387h112.392a8.39 8.39 0 008.387-8.387V12.554z" fill="none" stroke-width="8.33"/>
<path d="M16.649 16.667h25.002v25H16.649zM16.643 50h25.002v25H16.643zM16.636 83.333h25.002v25H16.636zM83.309 50h25.002v25H83.309zM49.969 83.333h25.002v25H49.969zM49.976 50h25.002v25H49.976z"/>
</svg>