<svg viewBox="0 0 138 125" xmlns="http://www.w3.org/2000/svg" fill-rule="evenodd" clip-rule="evenodd" stroke-linecap="round" stroke-linejoin="round" stroke-miterlimit="1.5">
<path fill="none" d="M-366.667-33.333H462.5v1129.17h-829.167z"/>
<path d="M133.333 12.554a8.39 8.39 0 00-8.387-8.387H12.554a8.39 8.39 0 00-8.387 8.387v99.892a8.39 8.39 0 008.387 8.387h112.392a8.39 8.39 0 008.387-8.387V12.554z" fill="none" stroke-width="8.33"/>
<path d="M16.651 16.667h29.167v25H16.651zM16.644 50h29.167v25H16.644zM16.636 83.333h29.167v25H16.636zM54.151 16.667h29.167v25H54.151zM54.144 50h29.167v25H54.144zM54.136 83.333h29.167v25H54.136zM91.667 16.667h29.167v25H91.667z"/>
</svg>