<?xml version="1.0" encoding="UTF-8" standalone="no"?><!DOCTYPE svg PUBLIC "-//W3C//DTD SVG 1.1//EN" "http://www.w3.org/Graphics/SVG/1.1/DTD/svg11.dtd"><svg width="100%" height="100%" viewBox="0 0 138 125" version="1.1" xmlns="http://www.w3.org/2000/svg" xmlns:xlink="http://www.w3.org/1999/xlink" xml:space="preserve" xmlns:serif="http://www.serif.com/" style="fill-rule:evenodd;clip-rule:evenodd;stroke-linecap:round;stroke-linejoin:round;stroke-miterlimit:1.5;"><rect id="Artboard1" x="-200" y="-200" width="829.167" height="1129.17" style="fill:none;"/><g id="Rows"></g><g id="Columns"><path d="M133.333,12.554c0,-4.629 -3.758,-8.387 -8.387,-8.387l-112.392,-0c-4.629,-0 -8.387,3.758 -8.387,8.387l-0,99.892c-0,4.629 3.758,8.387 8.387,8.387l112.392,0c4.629,0 8.387,-3.758 8.387,-8.387l0,-99.892Z" style="fill:none;stroke:#000;stroke-width:8.33px;"/><rect x="16.651" y="16.667" width="29.167" height="25"/><rect x="54.151" y="16.667" width="29.167" height="25"/><rect x="54.144" y="50" width="29.167" height="25"/><rect x="91.667" y="16.667" width="29.167" height="25"/><rect x="91.659" y="50" width="29.167" height="25"/><rect x="54.136" y="83.333" width="29.167" height="25"/></g><g id="ColoumSingle"></g><g id="GridFlowHorizontal"></g><g id="GridFlowVertical"></g><g id="GridFull"></g></svg>